<?xml version="1.0" encoding="UTF-8"?>
<svg width="24px" height="24px" viewBox="0 0 24 24" version="1.1" xmlns="http://www.w3.org/2000/svg" xmlns:xlink="http://www.w3.org/1999/xlink">
    <title>切片</title>
    <defs>
        <path d="M6.48337036,0.313557848 L11.9524913,12.445438 C12.0735584,12.7139952 11.9552613,13.0304228 11.6882673,13.1521988 C11.5651256,13.2083637 11.4253169,13.2151445 11.2973741,13.1711573 L5.999935,11.3498773 L0.702495921,13.1711573 C0.425092386,13.2665297 0.123347816,13.1176476 0.0285305598,12.8386199 C-0.0152006272,12.709928 -0.00845930326,12.5693008 0.0473787306,12.445438 L5.51649964,0.313557848 C5.63756676,0.0450006341 5.95215245,-0.0739890755 6.21914642,0.0477868925 C6.33633486,0.101236547 6.43023183,0.195683275 6.48337036,0.313557848 Z" id="path-1"></path>
    </defs>
    <g id="浏览器设计" stroke="none" stroke-width="1" fill="none" fill-rule="evenodd">
        <g id="Apple-TV-2备份-2" transform="translate(-1880.000000, -106.000000)">
            <g id="元素/抽象业务/点击" transform="translate(1882.520000, 108.520000)">
                <g id="编组">
                    <circle id="椭圆形" fill="#F0F2F5" cx="5.52" cy="5.52" r="5.52"></circle>
                    <circle id="椭圆形" fill="#4A4C4F" cx="5.52" cy="5.52" r="3.84"></circle>
                    <circle id="椭圆形" fill="#FFFFFF" cx="5.52" cy="5.52" r="2.4"></circle>
                </g>
                <g id="蒙版" transform="translate(10.229545, 10.229545) rotate(-405.000000) translate(-10.229545, -10.229545) translate(4.229545, 3.629545)">
                    <mask id="mask-2" fill="white">
                        <use xlink:href="#path-1"></use>
                    </mask>
                    <use id="路径" fill="#9EFCBF" xlink:href="#path-1"></use>
                    <polygon id="矩形" fill="#00C782" mask="url(#mask-2)" points="-9.25294942 -4.47286871 5.99972467 -4.47292468 5.99978064 21.3431631 -9.25289344 21.3432191"></polygon>
                </g>
            </g>
        </g>
    </g>
</svg>