<?xml version="1.0" encoding="UTF-8"?>
<svg width="24px" height="24px" viewBox="0 0 24 24" version="1.1" xmlns="http://www.w3.org/2000/svg" xmlns:xlink="http://www.w3.org/1999/xlink">
    <g id="通用/icon-图标/系统&amp;操作/trash" stroke="none" stroke-width="1" fill-rule="evenodd">
<path d="M9,11 C9.55,11 10,11.45 10,12 L10,12 L10,16 C10,16.55 9.55,17 9,17 C8.45,17 8,16.55 8,16 L8,16 L8,12 C8,11.45 8.45,11 9,11 Z M15,11 C15.55,11 16,11.45 16,12 L16,12 L16,16 C16,16.55 15.55,17 15,17 C14.45,17 14,16.55 14,16 L14,16 L14,12 C14,11.45 14.45,11 15,11 Z M18,19 C18,19.551 17.552,20 17,20 L7,20 C6.448,20 6,19.551 6,19 L6,8 L18,8 L18,19 Z M10,4.328 C10,4.173 10.214,4 10.5,4 L13.5,4 C13.786,4 14,4.173 14,4.328 L14,6 L10,6 L10,4.328 Z M21,6 L20,6 L16,6 L16,4.328 C16,3.044 14.879,2 13.5,2 L10.5,2 C9.121,2 8,3.044 8,4.328 L8,6 L4,6 L3,6 C2.45,6 2,6.45 2,7 C2,7.55 2.45,8 3,8 L4,8 L4,19 C4,20.654 5.346,22 7,22 L17,22 C18.654,22 20,20.654 20,19 L20,8 L21,8 C21.55,8 22,7.55 22,7 C22,6.45 21.55,6 21,6 L21,6 Z" id="path-1"></path>
    </g>
</svg>
