<svg t="1717746342630" class="icon" viewBox="0 0 1024 1024" version="1.1" xmlns="http://www.w3.org/2000/svg" p-id="5296" width="200" height="200"><path d="M832.608374 649.465374 832.608374 649.465374c-77.645648 123.693415-188.008394 229.379434-320.835415 306.58539-131.368042-77.205956-242.230439-182.891976-319.876087-306.58539C113.151994 523.793345 68.203458 377.535725 68.203458 224.34296c0-32.697112 2.618167-66.473469 6.195663-97.651644 1.978615-20.425702 5.556111-40.291796 10.152893-58.758869l855.920855 0c3.517538 18.447087 6.575397 38.313181 9.193565 58.239233 4.596782 31.677826 6.135705 65.454182 6.135705 98.151294C955.74218 377.615669 911.353253 523.853303 832.608374 649.465374L832.608374 649.465374zM842.961127 131.428 842.961127 131.428l0-0.639552-661.337064 0c-53.122814 0-48.526032 56.20066-48.526032 93.054862l0 0.519636-1.019286 0c0 128.230239 34.156091 248.346158 93.054862 355.631058l2.498251 2.558209c60.8574 111.302089 151.294094 207.354852 257.10003 280.543619 16.788248 11.751774 39.392425 11.751774 55.681023-0.639552l0.959328-0.439692c106.325572-75.107425 196.24263-171.659838 257.559708-282.002598 59.838113-107.344859 93.054862-227.480763 93.054862-355.631058l0-4.596782C890.927551 183.47157 893.925452 131.428 842.961127 131.428L842.961127 131.428zM307.416009 531.388028 307.416009 531.388028c-49.105626-90.876387-78.804837-194.703707-78.804837-304.486859L701.759968 226.901169 307.416009 531.388028 307.416009 531.388028zM715.110623 534.006196 715.110623 534.006196c-49.105626 88.378135-118.017388 167.562706-203.337664 231.038273-58.299191-44.069152-109.903068-95.093435-152.313381-152.872989l434.375937-335.205356C786.120915 369.361447 758.979914 455.840911 715.110623 534.006196L715.110623 534.006196z" p-id="5297" fill="#bfbfbf"></path></svg>